<svg width="51" height="51" viewBox="0 0 51 51" fill="none" xmlns="http://www.w3.org/2000/svg">
<circle cx="25.5" cy="25.222" r="25" fill="#860F0F"/>
<mask id="mask0_77_41" style="mask-type:alpha" maskUnits="userSpaceOnUse" x="13" y="13" width="25" height="25">
<rect x="13.5" y="13.222" width="24" height="24" fill="#D9D9D9"/>
</mask>
<g mask="url(#mask0_77_41)">
<path d="M24.6 32.222H26.35V30.972C27.1833 30.822 27.9 30.497 28.5 29.997C29.1 29.497 29.4 28.7554 29.4 27.772C29.4 27.072 29.2 26.4304 28.8 25.847C28.4 25.2637 27.6 24.7554 26.4 24.322C25.4 23.9887 24.7083 23.697 24.325 23.447C23.9417 23.197 23.75 22.8554 23.75 22.422C23.75 21.9887 23.9042 21.647 24.2125 21.397C24.5208 21.147 24.9667 21.022 25.55 21.022C26.0833 21.022 26.5 21.1512 26.8 21.4095C27.1 21.6679 27.3167 21.9887 27.45 22.372L29.05 21.722C28.8667 21.1387 28.5292 20.6304 28.0375 20.197C27.5458 19.7637 27 19.522 26.4 19.472V18.222H24.65V19.472C23.8167 19.6554 23.1667 20.022 22.7 20.572C22.2333 21.122 22 21.7387 22 22.422C22 23.2054 22.2292 23.8387 22.6875 24.322C23.1458 24.8054 23.8667 25.222 24.85 25.572C25.9 25.9554 26.6292 26.297 27.0375 26.597C27.4458 26.897 27.65 27.2887 27.65 27.772C27.65 28.322 27.4542 28.7262 27.0625 28.9845C26.6708 29.2429 26.2 29.372 25.65 29.372C25.1 29.372 24.6125 29.2012 24.1875 28.8595C23.7625 28.5179 23.45 28.0054 23.25 27.322L21.6 27.972C21.8333 28.772 22.1958 29.4179 22.6875 29.9095C23.1792 30.4012 23.8167 30.7387 24.6 30.922V32.222ZM25.5 35.222C24.1167 35.222 22.8167 34.9595 21.6 34.4345C20.3833 33.9095 19.325 33.197 18.425 32.297C17.525 31.397 16.8125 30.3387 16.2875 29.122C15.7625 27.9054 15.5 26.6054 15.5 25.222C15.5 23.8387 15.7625 22.5387 16.2875 21.322C16.8125 20.1054 17.525 19.047 18.425 18.147C19.325 17.247 20.3833 16.5345 21.6 16.0095C22.8167 15.4845 24.1167 15.222 25.5 15.222C26.8833 15.222 28.1833 15.4845 29.4 16.0095C30.6167 16.5345 31.675 17.247 32.575 18.147C33.475 19.047 34.1875 20.1054 34.7125 21.322C35.2375 22.5387 35.5 23.8387 35.5 25.222C35.5 26.6054 35.2375 27.9054 34.7125 29.122C34.1875 30.3387 33.475 31.397 32.575 32.297C31.675 33.197 30.6167 33.9095 29.4 34.4345C28.1833 34.9595 26.8833 35.222 25.5 35.222ZM25.5 33.222C27.7333 33.222 29.625 32.447 31.175 30.897C32.725 29.347 33.5 27.4554 33.5 25.222C33.5 22.9887 32.725 21.097 31.175 19.547C29.625 17.997 27.7333 17.222 25.5 17.222C23.2667 17.222 21.375 17.997 19.825 19.547C18.275 21.097 17.5 22.9887 17.5 25.222C17.5 27.4554 18.275 29.347 19.825 30.897C21.375 32.447 23.2667 33.222 25.5 33.222Z" fill="white"/>
</g>
</svg>
