<svg width="45" height="45" viewBox="0 0 45 45" fill="none" xmlns="http://www.w3.org/2000/svg">
<circle cx="22.5" cy="22.5" r="21.5" stroke="white" stroke-width="2"/>
<path d="M34.5386 22.47C34.5386 16.2175 29.5033 11.1516 23.2886 11.1516C17.0739 11.1516 12.0386 16.2175 12.0386 22.47C12.0386 28.1192 16.1525 32.8018 21.5308 33.6516V25.7419H18.6729V22.47H21.5308V19.9763C21.5308 17.1398 23.2092 15.5731 25.7799 15.5731C27.0111 15.5731 28.2985 15.7939 28.2985 15.7939V18.5779H26.8795C25.4823 18.5779 25.0464 19.4505 25.0464 20.3455V22.47H28.1664L27.6675 25.7419H25.0464V33.6516C30.4246 32.8018 34.5386 28.1192 34.5386 22.47Z" fill="white"/>
</svg>
