<svg width="50" height="50" viewBox="0 0 50 50" fill="none" xmlns="http://www.w3.org/2000/svg">
<mask id="mask0_14_238" style="mask-type:alpha" maskUnits="userSpaceOnUse" x="0" y="0" width="50" height="50">
<rect width="50" height="50" fill="#D9D9D9"/>
</mask>
<g mask="url(#mask0_14_238)">
<path d="M25 31.9048L33.3333 23.5714L25 15.2381L22.0833 18.1548L25.4166 21.4881H16.6666V25.6548H25.4166L22.0833 28.9881L25 31.9048ZM25 44.4048C22.118 44.4048 19.4097 43.8579 16.875 42.7641C14.3402 41.6704 12.1354 40.186 10.2604 38.311C8.38538 36.436 6.901 34.2312 5.80725 31.6964C4.7135 29.1617 4.16663 26.4534 4.16663 23.5714C4.16663 20.6895 4.7135 17.9812 5.80725 15.4464C6.901 12.9117 8.38538 10.7068 10.2604 8.83185C12.1354 6.95685 14.3402 5.47247 16.875 4.37872C19.4097 3.28497 22.118 2.7381 25 2.7381C27.8819 2.7381 30.5902 3.28497 33.125 4.37872C35.6597 5.47247 37.8645 6.95685 39.7395 8.83185C41.6145 10.7068 43.0989 12.9117 44.1927 15.4464C45.2864 17.9812 45.8333 20.6895 45.8333 23.5714C45.8333 26.4534 45.2864 29.1617 44.1927 31.6964C43.0989 34.2312 41.6145 36.436 39.7395 38.311C37.8645 40.186 35.6597 41.6704 33.125 42.7641C30.5902 43.8579 27.8819 44.4048 25 44.4048ZM25 40.2381C29.6527 40.2381 33.5937 38.6235 36.8229 35.3943C40.052 32.1652 41.6666 28.2242 41.6666 23.5714C41.6666 18.9187 40.052 14.9777 36.8229 11.7485C33.5937 8.51935 29.6527 6.90476 25 6.90476C20.3472 6.90476 16.4062 8.51935 13.177 11.7485C9.94788 14.9777 8.33329 18.9187 8.33329 23.5714C8.33329 28.2242 9.94788 32.1652 13.177 35.3943C16.4062 38.6235 20.3472 40.2381 25 40.2381Z" fill="white"/>
</g>
</svg>
