<svg width="40" height="40" viewBox="0 0 40 40" fill="none" xmlns="http://www.w3.org/2000/svg">
<mask id="mask0_107_243" style="mask-type:alpha" maskUnits="userSpaceOnUse" x="0" y="0" width="40" height="40">
<rect width="40" height="40" fill="#D9D9D9"/>
</mask>
<g mask="url(#mask0_107_243)">
<path d="M13.3333 28.3333C13.8056 28.3333 14.2017 28.1733 14.5217 27.8533C14.8406 27.5344 15 27.1389 15 26.6667C15 26.1944 14.8406 25.7983 14.5217 25.4783C14.2017 25.1594 13.8056 25 13.3333 25C12.8611 25 12.465 25.1594 12.145 25.4783C11.8261 25.7983 11.6667 26.1944 11.6667 26.6667C11.6667 27.1389 11.8261 27.5344 12.145 27.8533C12.465 28.1733 12.8611 28.3333 13.3333 28.3333ZM13.3333 21.6667C13.8056 21.6667 14.2017 21.5067 14.5217 21.1867C14.8406 20.8678 15 20.4722 15 20C15 19.5278 14.8406 19.1317 14.5217 18.8117C14.2017 18.4928 13.8056 18.3333 13.3333 18.3333C12.8611 18.3333 12.465 18.4928 12.145 18.8117C11.8261 19.1317 11.6667 19.5278 11.6667 20C11.6667 20.4722 11.8261 20.8678 12.145 21.1867C12.465 21.5067 12.8611 21.6667 13.3333 21.6667ZM13.3333 15C13.8056 15 14.2017 14.84 14.5217 14.52C14.8406 14.2011 15 13.8056 15 13.3333C15 12.8611 14.8406 12.465 14.5217 12.145C14.2017 11.8261 13.8056 11.6667 13.3333 11.6667C12.8611 11.6667 12.465 11.8261 12.145 12.145C11.8261 12.465 11.6667 12.8611 11.6667 13.3333C11.6667 13.8056 11.8261 14.2011 12.145 14.52C12.465 14.84 12.8611 15 13.3333 15ZM18.3333 28.3333H28.3333V25H18.3333V28.3333ZM18.3333 21.6667H28.3333V18.3333H18.3333V21.6667ZM18.3333 15H28.3333V11.6667H18.3333V15ZM8.33333 35C7.41667 35 6.63167 34.6739 5.97833 34.0217C5.32611 33.3683 5 32.5833 5 31.6667V8.33333C5 7.41667 5.32611 6.63167 5.97833 5.97833C6.63167 5.32611 7.41667 5 8.33333 5H31.6667C32.5833 5 33.3683 5.32611 34.0217 5.97833C34.6739 6.63167 35 7.41667 35 8.33333V31.6667C35 32.5833 34.6739 33.3683 34.0217 34.0217C33.3683 34.6739 32.5833 35 31.6667 35H8.33333ZM8.33333 31.6667H31.6667V8.33333H8.33333V31.6667Z" fill="white"/>
</g>
</svg>
