<svg width="45" height="45" viewBox="0 0 45 45" fill="none" xmlns="http://www.w3.org/2000/svg">
<circle cx="22.5" cy="22.5" r="21.5" stroke="white" stroke-width="2"/>
<path d="M32.5928 11.5875H13.3021C12.4181 11.5875 11.7 12.3158 11.7 13.2097V32.4653C11.7 33.3593 12.4181 34.0875 13.3021 34.0875H32.5928C33.4767 34.0875 34.2 33.3593 34.2 32.4653V13.2097C34.2 12.3158 33.4767 11.5875 32.5928 11.5875ZM18.5002 30.8732H15.1654V20.1355H18.5052V30.8732H18.5002ZM16.8328 18.669C15.763 18.669 14.8992 17.8001 14.8992 16.7354C14.8992 15.6707 15.763 14.8018 16.8328 14.8018C17.8975 14.8018 18.7664 15.6707 18.7664 16.7354C18.7664 17.8052 17.9025 18.669 16.8328 18.669ZM31.0007 30.8732H27.6659V25.65C27.6659 24.4045 27.6408 22.8024 25.9332 22.8024C24.1955 22.8024 23.9293 24.1584 23.9293 25.5596V30.8732H20.5945V20.1355H23.7937V21.602H23.8389C24.2859 20.7583 25.3757 19.8693 26.9979 19.8693C30.3729 19.8693 31.0007 22.0942 31.0007 24.9871V30.8732Z" fill="white"/>
</svg>
