<svg width="120" height="36" viewBox="0 0 120 36" fill="none" xmlns="http://www.w3.org/2000/svg">
<path d="M5.592 22.832H10.968V26H1.488V9.152H5.592V22.832ZM20.2215 26.192C18.9095 26.192 17.7255 25.912 16.6695 25.352C15.6295 24.792 14.8055 23.992 14.1975 22.952C13.6055 21.912 13.3095 20.696 13.3095 19.304C13.3095 17.928 13.6135 16.72 14.2215 15.68C14.8295 14.624 15.6615 13.816 16.7175 13.256C17.7735 12.696 18.9575 12.416 20.2695 12.416C21.5815 12.416 22.7655 12.696 23.8215 13.256C24.8775 13.816 25.7095 14.624 26.3175 15.68C26.9255 16.72 27.2295 17.928 27.2295 19.304C27.2295 20.68 26.9175 21.896 26.2935 22.952C25.6855 23.992 24.8455 24.792 23.7735 25.352C22.7175 25.912 21.5335 26.192 20.2215 26.192ZM20.2215 22.64C21.0055 22.64 21.6695 22.352 22.2135 21.776C22.7735 21.2 23.0535 20.376 23.0535 19.304C23.0535 18.232 22.7815 17.408 22.2375 16.832C21.7095 16.256 21.0535 15.968 20.2695 15.968C19.4695 15.968 18.8055 16.256 18.2775 16.832C17.7495 17.392 17.4855 18.216 17.4855 19.304C17.4855 20.376 17.7415 21.2 18.2535 21.776C18.7815 22.352 19.4375 22.64 20.2215 22.64ZM47.6948 12.464C49.3588 12.464 50.6788 12.968 51.6548 13.976C52.6468 14.984 53.1428 16.384 53.1428 18.176V26H49.0628V18.728C49.0628 17.864 48.8308 17.2 48.3668 16.736C47.9188 16.256 47.2948 16.016 46.4948 16.016C45.6948 16.016 45.0628 16.256 44.5988 16.736C44.1508 17.2 43.9268 17.864 43.9268 18.728V26H39.8468V18.728C39.8468 17.864 39.6148 17.2 39.1507 16.736C38.7027 16.256 38.0787 16.016 37.2787 16.016C36.4787 16.016 35.8468 16.256 35.3827 16.736C34.9347 17.2 34.7107 17.864 34.7107 18.728V26H30.6067V12.608H34.7107V14.288C35.1267 13.728 35.6707 13.288 36.3428 12.968C37.0148 12.632 37.7748 12.464 38.6228 12.464C39.6308 12.464 40.5268 12.68 41.3108 13.112C42.1108 13.544 42.7348 14.16 43.1828 14.96C43.6467 14.224 44.2787 13.624 45.0788 13.16C45.8788 12.696 46.7508 12.464 47.6948 12.464ZM70.053 14.576C70.053 15.552 69.829 16.448 69.381 17.264C68.933 18.064 68.245 18.712 67.317 19.208C66.389 19.704 65.237 19.952 63.861 19.952H61.317V26H57.213V9.152H63.861C65.205 9.152 66.341 9.384 67.269 9.848C68.197 10.312 68.893 10.952 69.357 11.768C69.821 12.584 70.053 13.52 70.053 14.576ZM63.549 16.688C64.333 16.688 64.917 16.504 65.301 16.136C65.685 15.768 65.877 15.248 65.877 14.576C65.877 13.904 65.685 13.384 65.301 13.016C64.917 12.648 64.333 12.464 63.549 12.464H61.317V16.688H63.549ZM72.5736 19.28C72.5736 17.904 72.8296 16.696 73.3416 15.656C73.8696 14.616 74.5816 13.816 75.4776 13.256C76.3736 12.696 77.3736 12.416 78.4776 12.416C79.4216 12.416 80.2456 12.608 80.9496 12.992C81.6696 13.376 82.2216 13.88 82.6056 14.504V12.608H86.7096V26H82.6056V24.104C82.2056 24.728 81.6456 25.232 80.9256 25.616C80.2216 26 79.3976 26.192 78.4536 26.192C77.3656 26.192 76.3736 25.912 75.4776 25.352C74.5816 24.776 73.8696 23.968 73.3416 22.928C72.8296 21.872 72.5736 20.656 72.5736 19.28ZM82.6056 19.304C82.6056 18.28 82.3176 17.472 81.7416 16.88C81.1816 16.288 80.4936 15.992 79.6776 15.992C78.8616 15.992 78.1656 16.288 77.5896 16.88C77.0296 17.456 76.7496 18.256 76.7496 19.28C76.7496 20.304 77.0296 21.12 77.5896 21.728C78.1656 22.32 78.8616 22.616 79.6776 22.616C80.4936 22.616 81.1816 22.32 81.7416 21.728C82.3176 21.136 82.6056 20.328 82.6056 19.304ZM90.0626 19.304C90.0626 17.912 90.3426 16.696 90.9026 15.656C91.4786 14.616 92.2706 13.816 93.2786 13.256C94.3026 12.696 95.4706 12.416 96.7826 12.416C98.4626 12.416 99.8626 12.856 100.983 13.736C102.119 14.616 102.863 15.856 103.215 17.456H98.8466C98.4786 16.432 97.7666 15.92 96.7106 15.92C95.9586 15.92 95.3586 16.216 94.9106 16.808C94.4626 17.384 94.2386 18.216 94.2386 19.304C94.2386 20.392 94.4626 21.232 94.9106 21.824C95.3586 22.4 95.9586 22.688 96.7106 22.688C97.7666 22.688 98.4786 22.176 98.8466 21.152H103.215C102.863 22.72 102.119 23.952 100.983 24.848C99.8466 25.744 98.4466 26.192 96.7826 26.192C95.4706 26.192 94.3026 25.912 93.2786 25.352C92.2706 24.792 91.4786 23.992 90.9026 22.952C90.3426 21.912 90.0626 20.696 90.0626 19.304ZM119.234 19.088C119.234 19.472 119.21 19.872 119.162 20.288H109.874C109.938 21.12 110.202 21.76 110.666 22.208C111.146 22.64 111.73 22.856 112.418 22.856C113.442 22.856 114.154 22.424 114.554 21.56H118.922C118.698 22.44 118.29 23.232 117.698 23.936C117.122 24.64 116.394 25.192 115.514 25.592C114.634 25.992 113.65 26.192 112.562 26.192C111.25 26.192 110.082 25.912 109.058 25.352C108.034 24.792 107.234 23.992 106.658 22.952C106.082 21.912 105.794 20.696 105.794 19.304C105.794 17.912 106.074 16.696 106.634 15.656C107.21 14.616 108.01 13.816 109.034 13.256C110.058 12.696 111.234 12.416 112.562 12.416C113.858 12.416 115.01 12.688 116.018 13.232C117.026 13.776 117.81 14.552 118.37 15.56C118.946 16.568 119.234 17.744 119.234 19.088ZM115.034 18.008C115.034 17.304 114.794 16.744 114.314 16.328C113.834 15.912 113.234 15.704 112.514 15.704C111.826 15.704 111.242 15.904 110.762 16.304C110.298 16.704 110.01 17.272 109.898 18.008H115.034Z" fill="white"/>
</svg>
