<svg width="51" height="51" viewBox="0 0 51 51" fill="none" xmlns="http://www.w3.org/2000/svg">
<circle cx="25.5" cy="25.8756" r="25" fill="#860F0F"/>
<mask id="mask0_77_42" style="mask-type:alpha" maskUnits="userSpaceOnUse" x="13" y="13" width="25" height="25">
<rect x="13.5" y="13.8756" width="24" height="24" fill="#D9D9D9"/>
</mask>
<g mask="url(#mask0_77_42)">
<path d="M22.35 29.5256L31.25 27.1756C31.5 27.1089 31.6875 26.9548 31.8125 26.7131C31.9375 26.4714 31.9667 26.2256 31.9 25.9756C31.8333 25.7256 31.6875 25.5381 31.4625 25.4131C31.2375 25.2881 31 25.2589 30.75 25.3256L28.3 25.9756L24.3 22.2256L22.9 22.5756L25.3 26.7756L22.9 27.3756L21.65 26.4256L20.7 26.6756L22.35 29.5256ZM33.5 33.8756H17.5C16.95 33.8756 16.4792 33.6798 16.0875 33.2881C15.6958 32.8964 15.5 32.4256 15.5 31.8756V27.8756C16.05 27.8756 16.5208 27.6798 16.9125 27.2881C17.3042 26.8964 17.5 26.4256 17.5 25.8756C17.5 25.3256 17.3042 24.8548 16.9125 24.4631C16.5208 24.0714 16.05 23.8756 15.5 23.8756V19.8756C15.5 19.3256 15.6958 18.8548 16.0875 18.4631C16.4792 18.0714 16.95 17.8756 17.5 17.8756H33.5C34.05 17.8756 34.5208 18.0714 34.9125 18.4631C35.3042 18.8548 35.5 19.3256 35.5 19.8756V31.8756C35.5 32.4256 35.3042 32.8964 34.9125 33.2881C34.5208 33.6798 34.05 33.8756 33.5 33.8756ZM33.5 31.8756V19.8756H17.5V22.4256C18.1167 22.7923 18.6042 23.2798 18.9625 23.8881C19.3208 24.4964 19.5 25.1589 19.5 25.8756C19.5 26.5923 19.3208 27.2548 18.9625 27.8631C18.6042 28.4714 18.1167 28.9589 17.5 29.3256V31.8756H33.5Z" fill="white"/>
</g>
</svg>
