<svg width="51" height="51" viewBox="0 0 51 51" fill="none" xmlns="http://www.w3.org/2000/svg">
<circle cx="25.5" cy="25.222" r="25" fill="#860F0F"/>
<mask id="mask0_77_43" style="mask-type:alpha" maskUnits="userSpaceOnUse" x="13" y="13" width="25" height="25">
<rect x="13.5" y="13.222" width="24" height="24" fill="#D9D9D9"/>
</mask>
<g mask="url(#mask0_77_43)">
<path d="M25.5 35.222C24.1167 35.222 22.8167 34.9595 21.6 34.4345C20.3833 33.9095 19.325 33.197 18.425 32.297C17.525 31.397 16.8125 30.3387 16.2875 29.122C15.7625 27.9054 15.5 26.6054 15.5 25.222C15.5 23.8387 15.7625 22.5387 16.2875 21.322C16.8125 20.1054 17.525 19.047 18.425 18.147C19.325 17.247 20.3833 16.5345 21.6 16.0095C22.8167 15.4845 24.1167 15.222 25.5 15.222C26.8833 15.222 28.1833 15.4845 29.4 16.0095C30.6167 16.5345 31.675 17.247 32.575 18.147C33.475 19.047 34.1875 20.1054 34.7125 21.322C35.2375 22.5387 35.5 23.8387 35.5 25.222C35.5 26.6054 35.2375 27.9054 34.7125 29.122C34.1875 30.3387 33.475 31.397 32.575 32.297C31.675 33.197 30.6167 33.9095 29.4 34.4345C28.1833 34.9595 26.8833 35.222 25.5 35.222ZM24.5 33.172V31.222C23.95 31.222 23.4792 31.0262 23.0875 30.6345C22.6958 30.2429 22.5 29.772 22.5 29.222V28.222L17.7 23.422C17.65 23.722 17.6042 24.022 17.5625 24.322C17.5208 24.622 17.5 24.922 17.5 25.222C17.5 27.2387 18.1625 29.0054 19.4875 30.522C20.8125 32.0387 22.4833 32.922 24.5 33.172ZM31.4 30.622C31.7333 30.2554 32.0333 29.8595 32.3 29.4345C32.5667 29.0095 32.7875 28.5679 32.9625 28.1095C33.1375 27.6512 33.2708 27.1804 33.3625 26.697C33.4542 26.2137 33.5 25.722 33.5 25.222C33.5 23.5887 33.0458 22.097 32.1375 20.747C31.2292 19.397 30.0167 18.422 28.5 17.822V18.222C28.5 18.772 28.3042 19.2429 27.9125 19.6345C27.5208 20.0262 27.05 20.222 26.5 20.222H24.5V22.222C24.5 22.5054 24.4042 22.7429 24.2125 22.9345C24.0208 23.1262 23.7833 23.222 23.5 23.222H21.5V25.222H27.5C27.7833 25.222 28.0208 25.3179 28.2125 25.5095C28.4042 25.7012 28.5 25.9387 28.5 26.222V29.222H29.5C29.9333 29.222 30.325 29.3512 30.675 29.6095C31.025 29.8679 31.2667 30.2054 31.4 30.622Z" fill="white"/>
</g>
</svg>
