<svg width="118" height="82" viewBox="0 0 118 82" fill="none" xmlns="http://www.w3.org/2000/svg">
<g clip-path="url(#clip0_74_53)">
<path d="M116.332 14.9289C117.189 15.8965 117.369 17.2178 116.778 18.3311L96.5986 56.6454C96.1273 57.5386 95.2232 58.1888 94.1487 58.4038C93.0741 58.6188 91.952 58.3792 91.0994 57.7495L79.8859 49.4963L70.1777 54.6716C68.914 55.351 67.3125 55.2555 66.1493 54.4368C64.9861 53.6181 64.5107 52.2381 64.9336 50.9637L67.6118 42.8924C67.74 42.5063 68.0223 42.1827 68.4043 41.9807L92.2088 29.1639C93.0316 28.7232 93.3209 27.7809 92.8707 27.0283C92.4205 26.2757 91.3947 25.9569 90.5376 26.3252L62.9705 37.8955L54.9321 31.0775C53.9669 30.2596 53.5784 29.0398 53.9243 27.8919C54.2702 26.744 55.2864 25.8611 56.5676 25.5861L112.737 13.8116C114.078 13.5318 115.472 13.971 116.332 14.9289Z" fill="#1C1B1F"/>
</g>
<path d="M1 79.9748C18.6433 67.0757 55.3605 45.1471 61.0827 60.6261C61.0827 76.1051 51.5457 79.9748 46.7773 79.9748C42.0088 80.2541 33.9024 78.3233 39.6246 68.3656C46.7773 55.9184 52.4994 43.8571 61.0827 43.8571" stroke="black" stroke-width="3"/>
<defs>
<clipPath id="clip0_74_53">
<rect width="56.7804" height="52.0817" fill="white" transform="matrix(0.96548 0.260477 -0.314935 0.949113 63.1797 0)"/>
</clipPath>
</defs>
</svg>
