<svg width="30" height="30" viewBox="0 0 30 30" fill="none" xmlns="http://www.w3.org/2000/svg">
<circle cx="15" cy="15" r="15" fill="white"/>
<mask id="mask0_76_136" style="mask-type:alpha" maskUnits="userSpaceOnUse" x="5" y="5" width="20" height="20">
<rect x="5" y="5" width="20" height="20" fill="#D9D9D9"/>
</mask>
<g mask="url(#mask0_76_136)">
<path d="M9.58333 19.5834C8.30556 19.5834 7.22222 19.1389 6.33333 18.25C5.44444 17.3611 5 16.2778 5 15C5 13.7222 5.44444 12.6389 6.33333 11.75C7.22222 10.8611 8.30556 10.4167 9.58333 10.4167C10.0972 10.4167 10.5903 10.507 11.0625 10.6875C11.5347 10.8681 11.9583 11.125 12.3333 11.4584L13.75 12.75L12.5 13.875L11.2083 12.7084C10.9861 12.5139 10.7361 12.3611 10.4583 12.25C10.1806 12.1389 9.88889 12.0834 9.58333 12.0834C8.77778 12.0834 8.09028 12.3681 7.52083 12.9375C6.95139 13.507 6.66667 14.1945 6.66667 15C6.66667 15.8056 6.95139 16.4931 7.52083 17.0625C8.09028 17.632 8.77778 17.9167 9.58333 17.9167C9.88889 17.9167 10.1806 17.8611 10.4583 17.75C10.7361 17.6389 10.9861 17.4861 11.2083 17.2917L17.6667 11.4584C18.0417 11.125 18.4653 10.8681 18.9375 10.6875C19.4097 10.507 19.9028 10.4167 20.4167 10.4167C21.6944 10.4167 22.7778 10.8611 23.6667 11.75C24.5556 12.6389 25 13.7222 25 15C25 16.2778 24.5556 17.3611 23.6667 18.25C22.7778 19.1389 21.6944 19.5834 20.4167 19.5834C19.9028 19.5834 19.4097 19.4931 18.9375 19.3125C18.4653 19.132 18.0417 18.875 17.6667 18.5417L16.25 17.25L17.5 16.125L18.7917 17.2917C19.0139 17.4861 19.2639 17.6389 19.5417 17.75C19.8194 17.8611 20.1111 17.9167 20.4167 17.9167C21.2222 17.9167 21.9097 17.632 22.4792 17.0625C23.0486 16.4931 23.3333 15.8056 23.3333 15C23.3333 14.1945 23.0486 13.507 22.4792 12.9375C21.9097 12.3681 21.2222 12.0834 20.4167 12.0834C20.1111 12.0834 19.8194 12.1389 19.5417 12.25C19.2639 12.3611 19.0139 12.5139 18.7917 12.7084L12.3333 18.5417C11.9583 18.875 11.5347 19.132 11.0625 19.3125C10.5903 19.4931 10.0972 19.5834 9.58333 19.5834Z" fill="#860F0F"/>
</g>
</svg>
