<svg width="328" height="50" viewBox="0 0 328 50" fill="none" xmlns="http://www.w3.org/2000/svg">
<mask id="path-1-inside-1_24_10" fill="white">
<path fill-rule="evenodd" clip-rule="evenodd" d="M49.2754 31C46.588 41.9093 36.7388 50 25 50C11.1929 50 0 38.8071 0 25C0 11.1929 11.1929 0 25 0C36.7388 0 46.588 8.09071 49.2754 19H56.7246C59.412 8.09071 69.2612 0 81 0H131C144.807 0 156 11.1929 156 25C156 38.8071 144.807 50 131 50H81C69.2612 50 59.412 41.9093 56.7246 31H49.2754Z"/>
</mask>
<path d="M49.2754 31V29H47.7082L47.3334 30.5216L49.2754 31ZM49.2754 19L47.3334 19.4784L47.7082 21H49.2754V19ZM56.7246 19V21H58.2918L58.6666 19.4784L56.7246 19ZM56.7246 31L58.6666 30.5216L58.2918 29H56.7246V31ZM25 52C37.6806 52 48.315 43.2602 51.2173 31.4784L47.3334 30.5216C44.861 40.5583 35.7971 48 25 48V52ZM-2 25C-2 39.9117 10.0883 52 25 52V48C12.2975 48 2 37.7025 2 25H-2ZM25 -2C10.0883 -2 -2 10.0883 -2 25H2C2 12.2975 12.2975 2 25 2V-2ZM51.2173 18.5216C48.315 6.73975 37.6806 -2 25 -2V2C35.7971 2 44.861 9.44166 47.3334 19.4784L51.2173 18.5216ZM49.2754 21H56.7246V17H49.2754V21ZM81 -2C68.3194 -2 57.685 6.73975 54.7827 18.5216L58.6666 19.4784C61.139 9.44166 70.2029 2 81 2V-2ZM131 -2H81V2H131V-2ZM158 25C158 10.0883 145.912 -2 131 -2V2C143.703 2 154 12.2975 154 25H158ZM131 52C145.912 52 158 39.9117 158 25H154C154 37.7025 143.703 48 131 48V52ZM81 52H131V48H81V52ZM54.7827 31.4784C57.685 43.2602 68.3194 52 81 52V48C70.2029 48 61.139 40.5583 58.6666 30.5216L54.7827 31.4784ZM56.7246 29H49.2754V33H56.7246V29Z" fill="white" mask="url(#path-1-inside-1_24_10)"/>
<mask id="path-3-inside-2_24_10" fill="white">
<path fill-rule="evenodd" clip-rule="evenodd" d="M221.275 31C218.588 41.9093 208.739 50 197 50C183.193 50 172 38.8071 172 25C172 11.1929 183.193 0 197 0C208.739 0 218.588 8.09071 221.275 19H228.725C231.412 8.09071 241.261 0 253 0H303C316.807 0 328 11.1929 328 25C328 38.8071 316.807 50 303 50H253C241.261 50 231.412 41.9093 228.725 31H221.275Z"/>
</mask>
<path d="M221.275 31V29H219.708L219.333 30.5216L221.275 31ZM221.275 19L219.333 19.4784L219.708 21H221.275V19ZM228.725 19V21H230.292L230.667 19.4784L228.725 19ZM228.725 31L230.667 30.5216L230.292 29H228.725V31ZM197 52C209.681 52 220.315 43.2602 223.217 31.4784L219.333 30.5216C216.861 40.5583 207.797 48 197 48V52ZM170 25C170 39.9117 182.088 52 197 52V48C184.297 48 174 37.7025 174 25H170ZM197 -2C182.088 -2 170 10.0883 170 25H174C174 12.2975 184.297 2 197 2V-2ZM223.217 18.5216C220.315 6.73975 209.681 -2 197 -2V2C207.797 2 216.861 9.44166 219.333 19.4784L223.217 18.5216ZM221.275 21H228.725V17H221.275V21ZM253 -2C240.319 -2 229.685 6.73975 226.783 18.5216L230.667 19.4784C233.139 9.44166 242.203 2 253 2V-2ZM303 -2H253V2H303V-2ZM330 25C330 10.0883 317.912 -2 303 -2V2C315.703 2 326 12.2975 326 25H330ZM303 52C317.912 52 330 39.9117 330 25H326C326 37.7025 315.703 48 303 48V52ZM253 52H303V48H253V52ZM226.783 31.4784C229.685 43.2602 240.319 52 253 52V48C242.203 48 233.139 40.5583 230.667 30.5216L226.783 31.4784ZM228.725 29H221.275V33H228.725V29Z" fill="white" mask="url(#path-3-inside-2_24_10)"/>
<mask id="mask0_24_10" style="mask-type:alpha" maskUnits="userSpaceOnUse" x="8" y="7" width="35" height="35">
<rect x="8" y="7" width="35" height="35" rx="17.5" fill="#D9D9D9"/>
</mask>
<g mask="url(#mask0_24_10)">
<rect x="2.375" y="2.83331" width="46.25" height="43.3333" rx="21.6667" fill="white"/>
<path d="M16.75 36.1666L18.2083 30.3333H12.375L13.1042 27.4166H18.9375L20.3958 21.5833H14.5625L15.2917 18.6666H21.125L22.5833 12.8333H25.5L24.0417 18.6666H29.875L31.3333 12.8333H34.25L32.7917 18.6666H38.625L37.8958 21.5833H32.0625L30.6042 27.4166H36.4375L35.7083 30.3333H29.875L28.4167 36.1666H25.5L26.9583 30.3333H21.125L19.6667 36.1666H16.75ZM21.8542 27.4166H27.6875L29.1458 21.5833H23.3125L21.8542 27.4166Z" fill="#FF0000"/>
</g>
<rect x="180" y="7" width="35" height="35" rx="17.5" fill="white"/>
<mask id="mask1_24_10" style="mask-type:alpha" maskUnits="userSpaceOnUse" x="180" y="7" width="35" height="35">
<rect x="180" y="7" width="35" height="35" fill="#D9D9D9"/>
</mask>
<g mask="url(#mask1_24_10)">
<path d="M188.75 36.1666L190.208 30.3333H184.375L185.104 27.4166H190.938L192.396 21.5833H186.562L187.292 18.6666H193.125L194.583 12.8333H197.5L196.042 18.6666H201.875L203.333 12.8333H206.25L204.792 18.6666H210.625L209.896 21.5833H204.062L202.604 27.4166H208.438L207.708 30.3333H201.875L200.417 36.1666H197.5L198.958 30.3333H193.125L191.667 36.1666H188.75ZM193.854 27.4166H199.688L201.146 21.5833H195.312L193.854 27.4166Z" fill="#FF0000"/>
</g>
<path d="M242.133 28.11V30H235.987V19.801H238.353V28.11H242.133ZM246.204 22.629C246.755 22.629 247.256 22.7153 247.709 22.888C248.162 23.0607 248.549 23.308 248.871 23.63C249.198 23.952 249.45 24.344 249.627 24.806C249.809 25.2633 249.9 25.779 249.9 26.353C249.9 26.9317 249.809 27.4543 249.627 27.921C249.45 28.383 249.198 28.7773 248.871 29.104C248.549 29.426 248.162 29.6757 247.709 29.853C247.256 30.0257 246.755 30.112 246.204 30.112C245.649 30.112 245.142 30.0257 244.685 29.853C244.232 29.6757 243.84 29.426 243.509 29.104C243.182 28.7773 242.928 28.383 242.746 27.921C242.569 27.4543 242.48 26.9317 242.48 26.353C242.48 25.779 242.569 25.2633 242.746 24.806C242.928 24.344 243.182 23.952 243.509 23.63C243.84 23.308 244.232 23.0607 244.685 22.888C245.142 22.7153 245.649 22.629 246.204 22.629ZM246.204 28.502C246.703 28.502 247.07 28.327 247.303 27.977C247.541 27.6223 247.66 27.0857 247.66 26.367C247.66 25.6483 247.541 25.114 247.303 24.764C247.07 24.414 246.703 24.239 246.204 24.239C245.691 24.239 245.315 24.414 245.077 24.764C244.839 25.114 244.72 25.6483 244.72 26.367C244.72 27.0857 244.839 27.6223 245.077 27.977C245.315 28.327 245.691 28.502 246.204 28.502ZM250.993 30V22.741H252.337C252.607 22.741 252.785 22.8623 252.869 23.105L252.988 23.497C253.109 23.371 253.235 23.2567 253.366 23.154C253.496 23.0467 253.636 22.9557 253.786 22.881C253.94 22.8017 254.103 22.741 254.276 22.699C254.453 22.6523 254.647 22.629 254.857 22.629C255.295 22.629 255.657 22.7433 255.942 22.972C256.231 23.196 256.45 23.497 256.6 23.875C256.721 23.651 256.868 23.4597 257.041 23.301C257.218 23.1423 257.407 23.014 257.608 22.916C257.813 22.818 258.028 22.7457 258.252 22.699C258.48 22.6523 258.707 22.629 258.931 22.629C259.346 22.629 259.715 22.692 260.037 22.818C260.359 22.9393 260.627 23.119 260.842 23.357C261.061 23.5903 261.227 23.8797 261.339 24.225C261.451 24.5657 261.507 24.953 261.507 25.387V30H259.337V25.387C259.337 24.6357 259.015 24.26 258.371 24.26C258.077 24.26 257.832 24.358 257.636 24.554C257.444 24.7453 257.349 25.023 257.349 25.387V30H255.179V25.387C255.179 24.9717 255.097 24.68 254.934 24.512C254.77 24.344 254.53 24.26 254.213 24.26C254.017 24.26 253.83 24.3043 253.653 24.393C253.48 24.4817 253.317 24.6007 253.163 24.75V30H250.993ZM266.601 24.806C267.217 24.806 267.66 24.659 267.931 24.365C268.201 24.071 268.337 23.6603 268.337 23.133C268.337 22.8997 268.302 22.6873 268.232 22.496C268.162 22.3047 268.054 22.1413 267.91 22.006C267.77 21.866 267.59 21.7587 267.371 21.684C267.156 21.6093 266.899 21.572 266.601 21.572H265.369V24.806H266.601ZM266.601 19.801C267.319 19.801 267.935 19.8873 268.449 20.06C268.967 20.228 269.391 20.4613 269.723 20.76C270.059 21.0587 270.306 21.411 270.465 21.817C270.623 22.223 270.703 22.6617 270.703 23.133C270.703 23.6417 270.621 24.1083 270.458 24.533C270.294 24.9577 270.045 25.3217 269.709 25.625C269.373 25.9283 268.946 26.1663 268.428 26.339C267.914 26.507 267.305 26.591 266.601 26.591H265.369V30H263.003V19.801H266.601ZM275.191 27.046C274.757 27.0647 274.4 27.102 274.12 27.158C273.84 27.214 273.618 27.284 273.455 27.368C273.292 27.452 273.177 27.5477 273.112 27.655C273.051 27.7623 273.021 27.879 273.021 28.005C273.021 28.2523 273.089 28.4273 273.224 28.53C273.359 28.628 273.558 28.677 273.819 28.677C274.099 28.677 274.344 28.628 274.554 28.53C274.764 28.432 274.976 28.2733 275.191 28.054V27.046ZM271.285 23.749C271.724 23.3617 272.209 23.0747 272.741 22.888C273.278 22.6967 273.852 22.601 274.463 22.601C274.902 22.601 275.296 22.6733 275.646 22.818C276.001 22.958 276.299 23.1563 276.542 23.413C276.789 23.665 276.978 23.966 277.109 24.316C277.24 24.666 277.305 25.0487 277.305 25.464V30H276.311C276.106 30 275.949 29.972 275.842 29.916C275.739 29.86 275.653 29.7433 275.583 29.566L275.429 29.167C275.247 29.321 275.072 29.4563 274.904 29.573C274.736 29.6897 274.561 29.79 274.379 29.874C274.202 29.9533 274.01 30.0117 273.805 30.049C273.604 30.091 273.38 30.112 273.133 30.112C272.802 30.112 272.501 30.07 272.23 29.986C271.959 29.8973 271.728 29.769 271.537 29.601C271.35 29.433 271.206 29.2253 271.103 28.978C271 28.726 270.949 28.4367 270.949 28.11C270.949 27.8487 271.014 27.585 271.145 27.319C271.276 27.0483 271.502 26.8033 271.824 26.584C272.146 26.36 272.58 26.1733 273.126 26.024C273.672 25.8747 274.36 25.7907 275.191 25.772V25.464C275.191 25.0393 275.102 24.7337 274.925 24.547C274.752 24.3557 274.505 24.26 274.183 24.26C273.926 24.26 273.716 24.288 273.553 24.344C273.39 24.4 273.243 24.463 273.112 24.533C272.986 24.603 272.862 24.666 272.741 24.722C272.62 24.778 272.475 24.806 272.307 24.806C272.158 24.806 272.032 24.7687 271.929 24.694C271.826 24.6193 271.742 24.5307 271.677 24.428L271.285 23.749ZM284.026 24.463C283.961 24.5423 283.898 24.6053 283.837 24.652C283.776 24.6987 283.69 24.722 283.578 24.722C283.471 24.722 283.373 24.6963 283.284 24.645C283.2 24.5937 283.104 24.5377 282.997 24.477C282.89 24.4117 282.764 24.3533 282.619 24.302C282.474 24.2507 282.295 24.225 282.08 24.225C281.814 24.225 281.583 24.274 281.387 24.372C281.196 24.47 281.037 24.61 280.911 24.792C280.785 24.974 280.692 25.198 280.631 25.464C280.57 25.7253 280.54 26.0217 280.54 26.353C280.54 27.0483 280.673 27.5827 280.939 27.956C281.21 28.3293 281.581 28.516 282.052 28.516C282.304 28.516 282.502 28.4857 282.647 28.425C282.796 28.3597 282.922 28.2897 283.025 28.215C283.128 28.1357 283.221 28.0633 283.305 27.998C283.394 27.9327 283.503 27.9 283.634 27.9C283.807 27.9 283.937 27.963 284.026 28.089L284.656 28.866C284.432 29.1227 284.196 29.3327 283.949 29.496C283.702 29.6547 283.447 29.7807 283.186 29.874C282.929 29.9627 282.67 30.0233 282.409 30.056C282.148 30.0933 281.893 30.112 281.646 30.112C281.203 30.112 280.778 30.028 280.372 29.86C279.971 29.692 279.616 29.4493 279.308 29.132C279.005 28.81 278.762 28.4157 278.58 27.949C278.403 27.4823 278.314 26.9503 278.314 26.353C278.314 25.8303 278.391 25.3427 278.545 24.89C278.704 24.4327 278.935 24.0383 279.238 23.707C279.546 23.371 279.924 23.1073 280.372 22.916C280.825 22.7247 281.347 22.629 281.94 22.629C282.509 22.629 283.009 22.72 283.438 22.902C283.867 23.084 284.255 23.35 284.6 23.7L284.026 24.463ZM289.893 25.499C289.893 25.3263 289.869 25.1583 289.823 24.995C289.781 24.8317 289.708 24.687 289.606 24.561C289.508 24.4303 289.377 24.3253 289.214 24.246C289.05 24.1667 288.852 24.127 288.619 24.127C288.208 24.127 287.886 24.246 287.653 24.484C287.419 24.7173 287.265 25.0557 287.191 25.499H289.893ZM287.163 26.759C287.233 27.3657 287.417 27.8067 287.716 28.082C288.014 28.3527 288.399 28.488 288.871 28.488C289.123 28.488 289.34 28.4577 289.522 28.397C289.704 28.3363 289.865 28.2687 290.005 28.194C290.149 28.1193 290.28 28.0517 290.397 27.991C290.518 27.9303 290.644 27.9 290.775 27.9C290.947 27.9 291.078 27.963 291.167 28.089L291.797 28.866C291.573 29.1227 291.33 29.3327 291.069 29.496C290.812 29.6547 290.546 29.7807 290.271 29.874C290 29.9627 289.727 30.0233 289.452 30.056C289.181 30.0933 288.922 30.112 288.675 30.112C288.166 30.112 287.688 30.0303 287.24 29.867C286.796 29.699 286.407 29.4517 286.071 29.125C285.739 28.7983 285.476 28.3923 285.28 27.907C285.088 27.4217 284.993 26.857 284.993 26.213C284.993 25.7277 285.074 25.268 285.238 24.834C285.406 24.4 285.644 24.0197 285.952 23.693C286.264 23.3663 286.64 23.1073 287.079 22.916C287.522 22.7247 288.021 22.629 288.577 22.629C289.057 22.629 289.496 22.7037 289.893 22.853C290.294 23.0023 290.637 23.2193 290.922 23.504C291.211 23.7887 291.435 24.1387 291.594 24.554C291.757 24.9647 291.839 25.4313 291.839 25.954C291.839 26.1173 291.832 26.2503 291.818 26.353C291.804 26.4557 291.778 26.5373 291.741 26.598C291.703 26.6587 291.652 26.7007 291.587 26.724C291.526 26.7473 291.447 26.759 291.349 26.759H287.163ZM298.258 30.756V32.114H292.742V30.756H298.258ZM302.139 30.112C301.793 30.112 301.488 30.063 301.222 29.965C300.96 29.8623 300.739 29.72 300.557 29.538C300.379 29.3513 300.244 29.1273 300.151 28.866C300.057 28.6047 300.011 28.313 300.011 27.991V24.239H299.395C299.283 24.239 299.187 24.204 299.108 24.134C299.028 24.0593 298.989 23.952 298.989 23.812V22.965L300.144 22.741L300.571 20.97C300.627 20.746 300.785 20.634 301.047 20.634H302.181V22.755H303.98V24.239H302.181V27.844C302.181 28.012 302.22 28.152 302.3 28.264C302.384 28.3713 302.503 28.425 302.657 28.425C302.736 28.425 302.801 28.418 302.853 28.404C302.909 28.3853 302.955 28.3667 302.993 28.348C303.035 28.3247 303.072 28.306 303.105 28.292C303.142 28.2733 303.184 28.264 303.231 28.264C303.296 28.264 303.347 28.2803 303.385 28.313C303.427 28.341 303.469 28.3877 303.511 28.453L304.169 29.482C303.889 29.692 303.574 29.8507 303.224 29.958C302.874 30.0607 302.512 30.112 302.139 30.112ZM306.945 23.861C307.169 23.469 307.425 23.161 307.715 22.937C308.009 22.713 308.345 22.601 308.723 22.601C309.049 22.601 309.315 22.678 309.521 22.832L309.381 24.428C309.357 24.5307 309.318 24.6007 309.262 24.638C309.21 24.6753 309.138 24.694 309.045 24.694C309.007 24.694 308.958 24.6917 308.898 24.687C308.837 24.6823 308.774 24.6777 308.709 24.673C308.643 24.6637 308.576 24.6567 308.506 24.652C308.44 24.6427 308.38 24.638 308.324 24.638C308.006 24.638 307.752 24.722 307.561 24.89C307.374 25.058 307.215 25.2913 307.085 25.59V30H304.915V22.741H306.203C306.31 22.741 306.399 22.7503 306.469 22.769C306.543 22.7877 306.604 22.818 306.651 22.86C306.702 22.8973 306.739 22.9487 306.763 23.014C306.791 23.0793 306.814 23.1587 306.833 23.252L306.945 23.861ZM312.479 22.741V30H310.309V22.741H312.479ZM312.703 20.753C312.703 20.9257 312.668 21.089 312.598 21.243C312.528 21.3923 312.433 21.5253 312.311 21.642C312.19 21.754 312.048 21.845 311.884 21.915C311.726 21.9803 311.555 22.013 311.373 22.013C311.196 22.013 311.03 21.9803 310.876 21.915C310.722 21.845 310.585 21.754 310.463 21.642C310.347 21.5253 310.253 21.3923 310.183 21.243C310.118 21.089 310.085 20.9257 310.085 20.753C310.085 20.5757 310.118 20.41 310.183 20.256C310.253 20.102 310.347 19.9667 310.463 19.85C310.585 19.7333 310.722 19.6423 310.876 19.577C311.03 19.5117 311.196 19.479 311.373 19.479C311.555 19.479 311.726 19.5117 311.884 19.577C312.048 19.6423 312.19 19.7333 312.311 19.85C312.433 19.9667 312.528 20.102 312.598 20.256C312.668 20.41 312.703 20.5757 312.703 20.753ZM316.163 28.026C316.326 28.2033 316.503 28.3293 316.695 28.404C316.886 28.4787 317.087 28.516 317.297 28.516C317.497 28.516 317.682 28.4763 317.85 28.397C318.018 28.3177 318.162 28.1917 318.284 28.019C318.41 27.8417 318.508 27.613 318.578 27.333C318.648 27.053 318.683 26.7123 318.683 26.311C318.683 25.9283 318.655 25.6063 318.599 25.345C318.543 25.0837 318.463 24.8737 318.361 24.715C318.263 24.5517 318.144 24.435 318.004 24.365C317.864 24.295 317.707 24.26 317.535 24.26C317.217 24.26 316.956 24.3183 316.751 24.435C316.545 24.5517 316.349 24.722 316.163 24.946V28.026ZM316.03 23.637C316.314 23.3337 316.636 23.0863 316.996 22.895C317.36 22.699 317.791 22.601 318.291 22.601C318.669 22.601 319.019 22.685 319.341 22.853C319.663 23.021 319.94 23.2637 320.174 23.581C320.407 23.8983 320.589 24.288 320.72 24.75C320.855 25.2073 320.923 25.7277 320.923 26.311C320.923 26.857 320.846 27.361 320.692 27.823C320.542 28.285 320.33 28.6863 320.055 29.027C319.784 29.3677 319.457 29.6337 319.075 29.825C318.697 30.0163 318.277 30.112 317.815 30.112C317.437 30.112 317.119 30.0583 316.863 29.951C316.606 29.8437 316.373 29.699 316.163 29.517V32.303H313.993V22.741H315.337C315.607 22.741 315.785 22.8623 315.869 23.105L316.03 23.637Z" fill="white"/>
<path d="M71.133 28.11V30H64.987V19.801H67.353V28.11H71.133ZM75.204 22.629C75.7547 22.629 76.2564 22.7153 76.709 22.888C77.1617 23.0607 77.549 23.308 77.871 23.63C78.1977 23.952 78.4497 24.344 78.627 24.806C78.809 25.2633 78.9 25.779 78.9 26.353C78.9 26.9317 78.809 27.4543 78.627 27.921C78.4497 28.383 78.1977 28.7773 77.871 29.104C77.549 29.426 77.1617 29.6757 76.709 29.853C76.2564 30.0257 75.7547 30.112 75.204 30.112C74.6487 30.112 74.1424 30.0257 73.685 29.853C73.2324 29.6757 72.8404 29.426 72.509 29.104C72.1824 28.7773 71.928 28.383 71.746 27.921C71.5687 27.4543 71.48 26.9317 71.48 26.353C71.48 25.779 71.5687 25.2633 71.746 24.806C71.928 24.344 72.1824 23.952 72.509 23.63C72.8404 23.308 73.2324 23.0607 73.685 22.888C74.1424 22.7153 74.6487 22.629 75.204 22.629ZM75.204 28.502C75.7034 28.502 76.0697 28.327 76.303 27.977C76.541 27.6223 76.66 27.0857 76.66 26.367C76.66 25.6483 76.541 25.114 76.303 24.764C76.0697 24.414 75.7034 24.239 75.204 24.239C74.6907 24.239 74.315 24.414 74.077 24.764C73.839 25.114 73.72 25.6483 73.72 26.367C73.72 27.0857 73.839 27.6223 74.077 27.977C74.315 28.327 74.6907 28.502 75.204 28.502ZM79.9928 30V22.741H81.3368C81.6075 22.741 81.7848 22.8623 81.8688 23.105L81.9878 23.497C82.1091 23.371 82.2351 23.2567 82.3658 23.154C82.4965 23.0467 82.6365 22.9557 82.7858 22.881C82.9398 22.8017 83.1031 22.741 83.2758 22.699C83.4531 22.6523 83.6468 22.629 83.8568 22.629C84.2955 22.629 84.6571 22.7433 84.9418 22.972C85.2311 23.196 85.4505 23.497 85.5998 23.875C85.7211 23.651 85.8681 23.4597 86.0408 23.301C86.2181 23.1423 86.4071 23.014 86.6078 22.916C86.8131 22.818 87.0278 22.7457 87.2518 22.699C87.4805 22.6523 87.7068 22.629 87.9308 22.629C88.3461 22.629 88.7148 22.692 89.0368 22.818C89.3588 22.9393 89.6271 23.119 89.8418 23.357C90.0611 23.5903 90.2268 23.8797 90.3388 24.225C90.4508 24.5657 90.5068 24.953 90.5068 25.387V30H88.3368V25.387C88.3368 24.6357 88.0148 24.26 87.3708 24.26C87.0768 24.26 86.8318 24.358 86.6358 24.554C86.4445 24.7453 86.3488 25.023 86.3488 25.387V30H84.1788V25.387C84.1788 24.9717 84.0971 24.68 83.9338 24.512C83.7705 24.344 83.5301 24.26 83.2128 24.26C83.0168 24.26 82.8301 24.3043 82.6528 24.393C82.4801 24.4817 82.3168 24.6007 82.1628 24.75V30H79.9928ZM95.6006 24.806C96.2166 24.806 96.66 24.659 96.9306 24.365C97.2013 24.071 97.3366 23.6603 97.3366 23.133C97.3366 22.8997 97.3016 22.6873 97.2316 22.496C97.1616 22.3047 97.0543 22.1413 96.9096 22.006C96.7696 21.866 96.59 21.7587 96.3706 21.684C96.156 21.6093 95.8993 21.572 95.6006 21.572H94.3686V24.806H95.6006ZM95.6006 19.801C96.3193 19.801 96.9353 19.8873 97.4486 20.06C97.9666 20.228 98.3913 20.4613 98.7226 20.76C99.0586 21.0587 99.306 21.411 99.4646 21.817C99.6233 22.223 99.7026 22.6617 99.7026 23.133C99.7026 23.6417 99.621 24.1083 99.4576 24.533C99.2943 24.9577 99.0446 25.3217 98.7086 25.625C98.3726 25.9283 97.9456 26.1663 97.4276 26.339C96.9143 26.507 96.3053 26.591 95.6006 26.591H94.3686V30H92.0026V19.801H95.6006ZM104.191 27.046C103.757 27.0647 103.4 27.102 103.12 27.158C102.84 27.214 102.618 27.284 102.455 27.368C102.292 27.452 102.177 27.5477 102.112 27.655C102.051 27.7623 102.021 27.879 102.021 28.005C102.021 28.2523 102.089 28.4273 102.224 28.53C102.359 28.628 102.558 28.677 102.819 28.677C103.099 28.677 103.344 28.628 103.554 28.53C103.764 28.432 103.976 28.2733 104.191 28.054V27.046ZM100.285 23.749C100.724 23.3617 101.209 23.0747 101.741 22.888C102.278 22.6967 102.852 22.601 103.463 22.601C103.902 22.601 104.296 22.6733 104.646 22.818C105.001 22.958 105.299 23.1563 105.542 23.413C105.789 23.665 105.978 23.966 106.109 24.316C106.24 24.666 106.305 25.0487 106.305 25.464V30H105.311C105.106 30 104.949 29.972 104.842 29.916C104.739 29.86 104.653 29.7433 104.583 29.566L104.429 29.167C104.247 29.321 104.072 29.4563 103.904 29.573C103.736 29.6897 103.561 29.79 103.379 29.874C103.202 29.9533 103.01 30.0117 102.805 30.049C102.604 30.091 102.38 30.112 102.133 30.112C101.802 30.112 101.501 30.07 101.23 29.986C100.959 29.8973 100.728 29.769 100.537 29.601C100.35 29.433 100.206 29.2253 100.103 28.978C100 28.726 99.9489 28.4367 99.9489 28.11C99.9489 27.8487 100.014 27.585 100.145 27.319C100.276 27.0483 100.502 26.8033 100.824 26.584C101.146 26.36 101.58 26.1733 102.126 26.024C102.672 25.8747 103.36 25.7907 104.191 25.772V25.464C104.191 25.0393 104.102 24.7337 103.925 24.547C103.752 24.3557 103.505 24.26 103.183 24.26C102.926 24.26 102.716 24.288 102.553 24.344C102.39 24.4 102.243 24.463 102.112 24.533C101.986 24.603 101.862 24.666 101.741 24.722C101.62 24.778 101.475 24.806 101.307 24.806C101.158 24.806 101.032 24.7687 100.929 24.694C100.826 24.6193 100.742 24.5307 100.677 24.428L100.285 23.749ZM113.026 24.463C112.961 24.5423 112.898 24.6053 112.837 24.652C112.776 24.6987 112.69 24.722 112.578 24.722C112.471 24.722 112.373 24.6963 112.284 24.645C112.2 24.5937 112.104 24.5377 111.997 24.477C111.89 24.4117 111.764 24.3533 111.619 24.302C111.474 24.2507 111.295 24.225 111.08 24.225C110.814 24.225 110.583 24.274 110.387 24.372C110.196 24.47 110.037 24.61 109.911 24.792C109.785 24.974 109.692 25.198 109.631 25.464C109.57 25.7253 109.54 26.0217 109.54 26.353C109.54 27.0483 109.673 27.5827 109.939 27.956C110.21 28.3293 110.581 28.516 111.052 28.516C111.304 28.516 111.502 28.4857 111.647 28.425C111.796 28.3597 111.922 28.2897 112.025 28.215C112.128 28.1357 112.221 28.0633 112.305 27.998C112.394 27.9327 112.503 27.9 112.634 27.9C112.807 27.9 112.937 27.963 113.026 28.089L113.656 28.866C113.432 29.1227 113.196 29.3327 112.949 29.496C112.702 29.6547 112.447 29.7807 112.186 29.874C111.929 29.9627 111.67 30.0233 111.409 30.056C111.148 30.0933 110.893 30.112 110.646 30.112C110.203 30.112 109.778 30.028 109.372 29.86C108.971 29.692 108.616 29.4493 108.308 29.132C108.005 28.81 107.762 28.4157 107.58 27.949C107.403 27.4823 107.314 26.9503 107.314 26.353C107.314 25.8303 107.391 25.3427 107.545 24.89C107.704 24.4327 107.935 24.0383 108.238 23.707C108.546 23.371 108.924 23.1073 109.372 22.916C109.825 22.7247 110.347 22.629 110.94 22.629C111.509 22.629 112.009 22.72 112.438 22.902C112.867 23.084 113.255 23.35 113.6 23.7L113.026 24.463ZM118.893 25.499C118.893 25.3263 118.869 25.1583 118.823 24.995C118.781 24.8317 118.708 24.687 118.606 24.561C118.508 24.4303 118.377 24.3253 118.214 24.246C118.05 24.1667 117.852 24.127 117.619 24.127C117.208 24.127 116.886 24.246 116.653 24.484C116.419 24.7173 116.265 25.0557 116.191 25.499H118.893ZM116.163 26.759C116.233 27.3657 116.417 27.8067 116.716 28.082C117.014 28.3527 117.399 28.488 117.871 28.488C118.123 28.488 118.34 28.4577 118.522 28.397C118.704 28.3363 118.865 28.2687 119.005 28.194C119.149 28.1193 119.28 28.0517 119.397 27.991C119.518 27.9303 119.644 27.9 119.775 27.9C119.947 27.9 120.078 27.963 120.167 28.089L120.797 28.866C120.573 29.1227 120.33 29.3327 120.069 29.496C119.812 29.6547 119.546 29.7807 119.271 29.874C119 29.9627 118.727 30.0233 118.452 30.056C118.181 30.0933 117.922 30.112 117.675 30.112C117.166 30.112 116.688 30.0303 116.24 29.867C115.796 29.699 115.407 29.4517 115.071 29.125C114.739 28.7983 114.476 28.3923 114.28 27.907C114.088 27.4217 113.993 26.857 113.993 26.213C113.993 25.7277 114.074 25.268 114.238 24.834C114.406 24.4 114.644 24.0197 114.952 23.693C115.264 23.3663 115.64 23.1073 116.079 22.916C116.522 22.7247 117.021 22.629 117.577 22.629C118.057 22.629 118.496 22.7037 118.893 22.853C119.294 23.0023 119.637 23.2193 119.922 23.504C120.211 23.7887 120.435 24.1387 120.594 24.554C120.757 24.9647 120.839 25.4313 120.839 25.954C120.839 26.1173 120.832 26.2503 120.818 26.353C120.804 26.4557 120.778 26.5373 120.741 26.598C120.703 26.6587 120.652 26.7007 120.587 26.724C120.526 26.7473 120.447 26.759 120.349 26.759H116.163ZM127.258 30.756V32.114H121.742V30.756H127.258ZM131.139 30.112C130.793 30.112 130.488 30.063 130.222 29.965C129.96 29.8623 129.739 29.72 129.557 29.538C129.379 29.3513 129.244 29.1273 129.151 28.866C129.057 28.6047 129.011 28.313 129.011 27.991V24.239H128.395C128.283 24.239 128.187 24.204 128.108 24.134C128.028 24.0593 127.989 23.952 127.989 23.812V22.965L129.144 22.741L129.571 20.97C129.627 20.746 129.785 20.634 130.047 20.634H131.181V22.755H132.98V24.239H131.181V27.844C131.181 28.012 131.22 28.152 131.3 28.264C131.384 28.3713 131.503 28.425 131.657 28.425C131.736 28.425 131.801 28.418 131.853 28.404C131.909 28.3853 131.955 28.3667 131.993 28.348C132.035 28.3247 132.072 28.306 132.105 28.292C132.142 28.2733 132.184 28.264 132.231 28.264C132.296 28.264 132.347 28.2803 132.385 28.313C132.427 28.341 132.469 28.3877 132.511 28.453L133.169 29.482C132.889 29.692 132.574 29.8507 132.224 29.958C131.874 30.0607 131.512 30.112 131.139 30.112ZM135.945 23.861C136.169 23.469 136.425 23.161 136.715 22.937C137.009 22.713 137.345 22.601 137.723 22.601C138.049 22.601 138.315 22.678 138.521 22.832L138.381 24.428C138.357 24.5307 138.318 24.6007 138.262 24.638C138.21 24.6753 138.138 24.694 138.045 24.694C138.007 24.694 137.958 24.6917 137.898 24.687C137.837 24.6823 137.774 24.6777 137.709 24.673C137.643 24.6637 137.576 24.6567 137.506 24.652C137.44 24.6427 137.38 24.638 137.324 24.638C137.006 24.638 136.752 24.722 136.561 24.89C136.374 25.058 136.215 25.2913 136.085 25.59V30H133.915V22.741H135.203C135.31 22.741 135.399 22.7503 135.469 22.769C135.543 22.7877 135.604 22.818 135.651 22.86C135.702 22.8973 135.739 22.9487 135.763 23.014C135.791 23.0793 135.814 23.1587 135.833 23.252L135.945 23.861ZM141.479 22.741V30H139.309V22.741H141.479ZM141.703 20.753C141.703 20.9257 141.668 21.089 141.598 21.243C141.528 21.3923 141.433 21.5253 141.311 21.642C141.19 21.754 141.048 21.845 140.884 21.915C140.726 21.9803 140.555 22.013 140.373 22.013C140.196 22.013 140.03 21.9803 139.876 21.915C139.722 21.845 139.585 21.754 139.463 21.642C139.347 21.5253 139.253 21.3923 139.183 21.243C139.118 21.089 139.085 20.9257 139.085 20.753C139.085 20.5757 139.118 20.41 139.183 20.256C139.253 20.102 139.347 19.9667 139.463 19.85C139.585 19.7333 139.722 19.6423 139.876 19.577C140.03 19.5117 140.196 19.479 140.373 19.479C140.555 19.479 140.726 19.5117 140.884 19.577C141.048 19.6423 141.19 19.7333 141.311 19.85C141.433 19.9667 141.528 20.102 141.598 20.256C141.668 20.41 141.703 20.5757 141.703 20.753ZM145.163 28.026C145.326 28.2033 145.503 28.3293 145.695 28.404C145.886 28.4787 146.087 28.516 146.297 28.516C146.497 28.516 146.682 28.4763 146.85 28.397C147.018 28.3177 147.162 28.1917 147.284 28.019C147.41 27.8417 147.508 27.613 147.578 27.333C147.648 27.053 147.683 26.7123 147.683 26.311C147.683 25.9283 147.655 25.6063 147.599 25.345C147.543 25.0837 147.463 24.8737 147.361 24.715C147.263 24.5517 147.144 24.435 147.004 24.365C146.864 24.295 146.707 24.26 146.535 24.26C146.217 24.26 145.956 24.3183 145.751 24.435C145.545 24.5517 145.349 24.722 145.163 24.946V28.026ZM145.03 23.637C145.314 23.3337 145.636 23.0863 145.996 22.895C146.36 22.699 146.791 22.601 147.291 22.601C147.669 22.601 148.019 22.685 148.341 22.853C148.663 23.021 148.94 23.2637 149.174 23.581C149.407 23.8983 149.589 24.288 149.72 24.75C149.855 25.2073 149.923 25.7277 149.923 26.311C149.923 26.857 149.846 27.361 149.692 27.823C149.542 28.285 149.33 28.6863 149.055 29.027C148.784 29.3677 148.457 29.6337 148.075 29.825C147.697 30.0163 147.277 30.112 146.815 30.112C146.437 30.112 146.119 30.0583 145.863 29.951C145.606 29.8437 145.373 29.699 145.163 29.517V32.303H142.993V22.741H144.337C144.607 22.741 144.785 22.8623 144.869 23.105L145.03 23.637Z" fill="white"/>
</svg>
