<svg width="30" height="30" viewBox="0 0 30 30" fill="none" xmlns="http://www.w3.org/2000/svg">
<circle cx="15" cy="15" r="15" fill="white"/>
<mask id="mask0_76_132" style="mask-type:alpha" maskUnits="userSpaceOnUse" x="5" y="5" width="20" height="20">
<rect x="5" y="5" width="20" height="20" fill="#D9D9D9"/>
</mask>
<g mask="url(#mask0_76_132)">
<path d="M11.6458 19.1667L15 17.6459L18.3541 19.1667L18.6666 18.8542L15 10L11.3333 18.8542L11.6458 19.1667ZM15 23.3334C13.8472 23.3334 12.7638 23.1146 11.75 22.6771C10.7361 22.2396 9.85413 21.6459 9.10413 20.8959C8.35413 20.1459 7.76038 19.2639 7.32288 18.25C6.88538 17.2361 6.66663 16.1528 6.66663 15C6.66663 13.8472 6.88538 12.7639 7.32288 11.75C7.76038 10.7361 8.35413 9.85419 9.10413 9.10419C9.85413 8.35419 10.7361 7.76044 11.75 7.32294C12.7638 6.88544 13.8472 6.66669 15 6.66669C16.1527 6.66669 17.2361 6.88544 18.25 7.32294C19.2638 7.76044 20.1458 8.35419 20.8958 9.10419C21.6458 9.85419 22.2395 10.7361 22.677 11.75C23.1145 12.7639 23.3333 13.8472 23.3333 15C23.3333 16.1528 23.1145 17.2361 22.677 18.25C22.2395 19.2639 21.6458 20.1459 20.8958 20.8959C20.1458 21.6459 19.2638 22.2396 18.25 22.6771C17.2361 23.1146 16.1527 23.3334 15 23.3334ZM15 21.6667C16.8611 21.6667 18.4375 21.0209 19.7291 19.7292C21.0208 18.4375 21.6666 16.8611 21.6666 15C21.6666 13.1389 21.0208 11.5625 19.7291 10.2709C18.4375 8.97919 16.8611 8.33335 15 8.33335C13.1388 8.33335 11.5625 8.97919 10.2708 10.2709C8.97913 11.5625 8.33329 13.1389 8.33329 15C8.33329 16.8611 8.97913 18.4375 10.2708 19.7292C11.5625 21.0209 13.1388 21.6667 15 21.6667Z" fill="#860F0F"/>
</g>
</svg>
