<svg width="30" height="30" viewBox="0 0 30 30" fill="none" xmlns="http://www.w3.org/2000/svg">
<circle cx="15" cy="15" r="15" fill="white"/>
<mask id="mask0_76_134" style="mask-type:alpha" maskUnits="userSpaceOnUse" x="5" y="5" width="20" height="20">
<rect x="5" y="5" width="20" height="20" fill="#D9D9D9"/>
</mask>
<g mask="url(#mask0_76_134)">
<path d="M18.75 21.6666C19.5555 21.6666 20.243 21.3819 20.8125 20.8125C21.3819 20.243 21.6666 19.5555 21.6666 18.75V17.5H15.8333V18.75C15.8333 19.5555 16.118 20.243 16.6875 20.8125C17.2569 21.3819 17.9444 21.6666 18.75 21.6666ZM15.8541 15.8333H17.9166V13.4583C17.3888 13.6111 16.934 13.9028 16.552 14.3333C16.1701 14.7639 15.9375 15.2639 15.8541 15.8333ZM19.5833 15.8333H21.6458C21.5625 15.2639 21.3298 14.7639 20.9479 14.3333C20.5659 13.9028 20.1111 13.6111 19.5833 13.4583V15.8333ZM18.75 23.3333C17.4722 23.3333 16.3888 22.8889 15.5 22C14.6111 21.1111 14.1666 20.0278 14.1666 18.75V16.25C14.1666 14.9722 14.6111 13.8889 15.5 13C16.3888 12.1111 17.4722 11.6666 18.75 11.6666C20.0277 11.6666 21.1111 12.1111 22 13C22.8888 13.8889 23.3333 14.9722 23.3333 16.25V18.75C23.3333 20.0278 22.8888 21.1111 22 22C21.1111 22.8889 20.0277 23.3333 18.75 23.3333ZM8.33329 21.6666C7.87496 21.6666 7.4826 21.5035 7.15621 21.1771C6.82982 20.8507 6.66663 20.4583 6.66663 20V9.99998C6.66663 9.54165 6.82982 9.14929 7.15621 8.8229C7.4826 8.49651 7.87496 8.33331 8.33329 8.33331H21.6666C22.125 8.33331 22.5173 8.49651 22.8437 8.8229C23.1701 9.14929 23.3333 9.54165 23.3333 9.99998V12C23.0972 11.7361 22.8402 11.4965 22.5625 11.2812C22.2847 11.066 21.9861 10.875 21.6666 10.7083V9.99998H8.33329V20H12.625C12.6944 20.2916 12.7743 20.5764 12.8645 20.8541C12.9548 21.1319 13.0694 21.4028 13.2083 21.6666H8.33329Z" fill="#860F0F"/>
</g>
</svg>
