<svg width="45" height="45" viewBox="0 0 45 45" fill="none" xmlns="http://www.w3.org/2000/svg">
<circle cx="22.5" cy="22.5" r="21.5" stroke="white" stroke-width="2"/>
<path d="M31.8642 17.6204C31.8785 17.8665 31.8785 18.1126 31.8785 18.3587C31.8785 25.8645 27.2386 34.513 18.7582 34.513C16.1456 34.513 13.7186 33.5813 11.677 31.9642C12.0482 32.0169 12.4051 32.0345 12.7906 32.0345C14.9463 32.0345 16.9308 31.138 18.5155 29.6087C16.4882 29.556 14.7893 27.9212 14.204 25.6712C14.4895 25.7239 14.775 25.7591 15.0749 25.7591C15.4889 25.7591 15.9029 25.6887 16.2884 25.5657C14.1754 25.0384 12.5907 22.7532 12.5907 19.9935V19.9232C13.2045 20.3451 13.9184 20.6087 14.6751 20.6438C13.433 19.6243 12.6192 17.8841 12.6192 15.9153C12.6192 14.8606 12.8476 13.8938 13.2474 13.0501C15.5174 16.4954 18.9295 18.7454 22.7557 18.9915C22.6843 18.5696 22.6414 18.1302 22.6414 17.6907C22.6414 14.5618 24.6973 12.013 27.2528 12.013C28.5805 12.013 29.7798 12.6985 30.6221 13.806C31.6643 13.5599 32.6637 13.0853 33.5488 12.4349C33.2062 13.7533 32.4781 14.8607 31.5216 15.5638C32.4495 15.4408 33.349 15.1243 34.177 14.6849C33.5489 15.8098 32.7637 16.8118 31.8642 17.6204Z" fill="white"/>
</svg>
